<?xml version="1.0" encoding="utf-8"?>
<svg xmlns="http://www.w3.org/2000/svg" xmlns:xlink="http://www.w3.org/1999/xlink" version="1.1" viewBox="0 0 1400 2100">
	<title>The cover for the Standard Ebooks edition of The Casebook of Sherlock Holmes, by Arthur Conan Doyle</title>
	<style type="text/css">
		path{
			fill: #fff;
		}

		.title-box{
			fill: #000;
			fill-opacity: .75;
		}
	</style>
	<image height="2100" width="1400" x="0" y="0" xlink:href="cover.jpg"/>
	<path class="title-box" d="M 50,1620 1350,1620 1350,2050 50,2050 Z"/>
	<g aria-label="THE CASEBOOK OF">
		<path d="M206.24,1713.25l0.00-15.44l54.27,0.00l0.00,15.44l-18.34,0.00l0.00,61.75l-17.59,0.00l0.00-61.75l-18.34,0.00z"/>
		<path d="M289.46,1744.03l0.00,30.97l-17.59,0.00l0.00-77.19l17.59,0.00l0.00,30.78l24.89,0.00l0.00-30.78l17.59,0.00l0.00,77.19l-17.59,0.00l0.00-30.97l-24.89,0.00z"/>
		<path d="M392.33,1697.81l0.00,15.44l-26.57,0.00l0.00,15.35l25.45,0.00l0.00,15.44l-25.45,0.00l0.00,15.53l26.57,0.00l0.00,15.44l-44.16,0.00l0.00-77.19l44.16,0.00z"/>
		<path d="M476.06,1759.09c8.98,0.00,15.16-4.77,15.16-4.77l7.49,14.97s-8.61,7.11-25.36,7.11c-21.80,0.00-41.82-17.78-41.82-39.86c0.00-22.18,19.93-40.14,41.82-40.14c16.75,0.00,25.36,7.11,25.36,7.11l-7.49,14.97s-6.18-4.77-15.16-4.77c-17.68,0.00-25.45,12.35-25.45,22.64c0.00,10.39,7.77,22.74,25.45,22.74z"/>
		<path d="M549.65,1697.81l31.16,77.19l-18.90,0.00l-5.71-15.44l-29.38,0.00l-5.71,15.44l-18.90,0.00l31.16-77.19l16.28,0.00z  M550.21,1744.12l-8.61-22.46l-0.19,0.00l-8.61,22.46l17.40,0.00z"/>
		<path d="M615.37,1696.40c14.04,0.00,23.95,7.30,23.95,7.30l-7.11,14.04s-7.67-5.33-15.63-5.33c-5.99,0.00-9.17,2.71-9.17,6.92c0.00,4.30,7.30,7.39,16.09,11.13c8.61,3.65,18.06,10.95,18.06,21.05c0.00,18.43-14.04,24.89-29.10,24.89c-18.06,0.00-29.01-10.20-29.01-10.20l8.80-14.78s10.29,8.70,18.90,8.70c3.84,0.00,11.13-0.37,11.13-7.58c0.00-5.61-8.23-8.14-17.40-12.73c-9.26-4.58-14.69-11.79-14.69-19.84c0.00-14.41,12.73-23.58,25.17-23.58z"/>
		<path d="M698.97,1697.81l0.00,15.44l-26.57,0.00l0.00,15.35l25.45,0.00l0.00,15.44l-25.45,0.00l0.00,15.53l26.57,0.00l0.00,15.44l-44.16,0.00l0.00-77.19l44.16,0.00z"/>
		<path d="M714.08,1697.81l23.95,0.00c13.29,0.00,23.77,4.96,23.77,19.65c0.00,7.11-3.09,13.19-9.64,16.56c9.64,1.68,16.47,7.02,16.47,19.46c0.00,12.73-9.26,21.52-25.26,21.52l-29.29,0.00l0.00-77.19z  M731.67,1728.03l1.40,0.00c7.58,0.00,11.70-2.34,11.70-8.80c0.00-5.52-4.02-7.86-11.70-7.86l-1.40,0.00l0.00,16.65z  M731.67,1761.43l5.52,0.00c8.33,0.00,12.91-2.53,12.91-8.61c0.00-7.11-4.58-9.64-12.91-9.64l-5.52,0.00l0.00,18.25z"/>
		<path d="M777.93,1736.36c0.00-22.55,17.68-39.95,38.92-39.95c21.43,0.00,38.83,17.40,38.83,39.95s-16.65,40.05-38.83,40.05c-22.83,0.00-38.92-17.50-38.92-40.05z  M796.92,1736.36c0.00,11.51,5.52,23.02,19.93,23.02c14.04,0.00,19.84-11.51,19.84-23.02s-6.18-23.02-19.84-23.02c-13.57,0.00-19.93,11.51-19.93,23.02z"/>
		<path d="M864.99,1736.36c0.00-22.55,17.68-39.95,38.92-39.95c21.43,0.00,38.83,17.40,38.83,39.95s-16.65,40.05-38.83,40.05c-22.83,0.00-38.92-17.50-38.92-40.05z  M883.98,1736.36c0.00,11.51,5.52,23.02,19.93,23.02c14.04,0.00,19.84-11.51,19.84-23.02s-6.18-23.02-19.84-23.02c-13.57,0.00-19.93,11.51-19.93,23.02z"/>
		<path d="M1025.78,1775.00l-24.23,0.00l-28.44-32.75l0.00,32.75l-17.59,0.00l0.00-77.19l17.59,0.00l0.00,31.53l26.48-31.53l21.33,0.00l-31.06,36.58z"/>
		<path d="M1061.23,1736.36c0.00-22.55,17.68-39.95,38.92-39.95c21.43,0.00,38.83,17.40,38.83,39.95s-16.65,40.05-38.83,40.05c-22.83,0.00-38.92-17.50-38.92-40.05z  M1080.22,1736.36c0.00,11.51,5.52,23.02,19.93,23.02c14.04,0.00,19.84-11.51,19.84-23.02s-6.18-23.02-19.84-23.02c-13.57,0.00-19.93,11.51-19.93,23.02z"/>
		<path d="M1196.38,1697.81l0.00,15.44l-27.04,0.00l0.00,15.35l24.98,0.00l0.00,15.44l-24.98,0.00l0.00,30.97l-17.59,0.00l0.00-77.19l44.63,0.00z"/>
	</g>
	<g aria-label="SHERLOCK HOLMES">
		<path d="M213.12,1796.40c14.04,0.00,23.95,7.30,23.95,7.30l-7.11,14.04s-7.67-5.33-15.63-5.33c-5.99,0.00-9.17,2.71-9.17,6.92c0.00,4.30,7.30,7.39,16.09,11.13c8.61,3.65,18.06,10.95,18.06,21.05c0.00,18.43-14.04,24.89-29.10,24.89c-18.06,0.00-29.01-10.20-29.01-10.20l8.80-14.78s10.29,8.70,18.90,8.70c3.84,0.00,11.13-0.37,11.13-7.58c0.00-5.61-8.23-8.14-17.40-12.73c-9.26-4.58-14.69-11.79-14.69-19.84c0.00-14.41,12.73-23.58,25.17-23.58z"/>
		<path d="M270.14,1844.03l0.00,30.97l-17.59,0.00l0.00-77.19l17.59,0.00l0.00,30.78l24.89,0.00l0.00-30.78l17.59,0.00l0.00,77.19l-17.59,0.00l0.00-30.97l-24.89,0.00z"/>
		<path d="M373.01,1797.81l0.00,15.44l-26.57,0.00l0.00,15.35l25.45,0.00l0.00,15.44l-25.45,0.00l0.00,15.53l26.57,0.00l0.00,15.44l-44.16,0.00l0.00-77.19l44.16,0.00z"/>
		<path d="M388.12,1797.81l27.60,0.00c14.32,0.00,25.17,7.77,25.17,22.92c0.00,11.60-6.36,19.37-15.81,22.36l26.57,31.91l-22.36,0.00l-23.58-30.50l0.00,30.50l-17.59,0.00l0.00-77.19z  M405.71,1832.05l2.06,0.00c6.64,0.00,14.60-0.47,14.60-10.11s-7.95-10.11-14.60-10.11l-2.06,0.00l0.00,20.21z"/>
		<path d="M477.70,1797.81l0.00,61.75l26.57,0.00l0.00,15.44l-44.16,0.00l0.00-77.19l17.59,0.00z"/>
		<path d="M514.51,1836.36c0.00-22.55,17.68-39.95,38.92-39.95c21.43,0.00,38.83,17.40,38.83,39.95s-16.65,40.05-38.83,40.05c-22.83,0.00-38.92-17.50-38.92-40.05z  M533.51,1836.36c0.00,11.51,5.52,23.02,19.93,23.02c14.04,0.00,19.84-11.51,19.84-23.02s-6.18-23.02-19.84-23.02c-13.57,0.00-19.93,11.51-19.93,23.02z"/>
		<path d="M646.11,1859.09c8.98,0.00,15.16-4.77,15.16-4.77l7.49,14.97s-8.61,7.11-25.36,7.11c-21.80,0.00-41.82-17.78-41.82-39.86c0.00-22.18,19.93-40.14,41.82-40.14c16.75,0.00,25.36,7.11,25.36,7.11l-7.49,14.97s-6.18-4.77-15.16-4.77c-17.68,0.00-25.45,12.35-25.45,22.64c0.00,10.39,7.77,22.74,25.45,22.74z"/>
		<path d="M750.76,1875.00l-24.23,0.00l-28.44-32.75l0.00,32.75l-17.59,0.00l0.00-77.19l17.59,0.00l0.00,31.53l26.48-31.53l21.33,0.00l-31.06,36.58z"/>
		<path d="M807.26,1844.03l0.00,30.97l-17.59,0.00l0.00-77.19l17.59,0.00l0.00,30.78l24.89,0.00l0.00-30.78l17.59,0.00l0.00,77.19l-17.59,0.00l0.00-30.97l-24.89,0.00z"/>
		<path d="M862.51,1836.36c0.00-22.55,17.68-39.95,38.92-39.95c21.43,0.00,38.83,17.40,38.83,39.95s-16.65,40.05-38.83,40.05c-22.83,0.00-38.92-17.50-38.92-40.05z  M881.50,1836.36c0.00,11.51,5.52,23.02,19.93,23.02c14.04,0.00,19.84-11.51,19.84-23.02s-6.18-23.02-19.84-23.02c-13.57,0.00-19.93,11.51-19.93,23.02z"/>
		<path d="M970.62,1797.81l0.00,61.75l26.57,0.00l0.00,15.44l-44.16,0.00l0.00-77.19l17.59,0.00z"/>
		<path d="M1074.71,1875.00l-3.65-45.75l-0.47,0.00l-15.81,45.29l-10.48,0.00l-15.81-45.29l-0.47,0.00l-3.65,45.75l-17.59,0.00l6.92-77.19l18.71,0.00l17.12,44.54l17.12-44.54l18.71,0.00l6.92,77.19l-17.59,0.00z"/>
		<path d="M1148.57,1797.81l0.00,15.44l-26.57,0.00l0.00,15.35l25.45,0.00l0.00,15.44l-25.45,0.00l0.00,15.53l26.57,0.00l0.00,15.44l-44.16,0.00l0.00-77.19l44.16,0.00z"/>
		<path d="M1192.12,1796.40c14.04,0.00,23.95,7.30,23.95,7.30l-7.11,14.04s-7.67-5.33-15.63-5.33c-5.99,0.00-9.17,2.71-9.17,6.92c0.00,4.30,7.30,7.39,16.09,11.13c8.61,3.65,18.06,10.95,18.06,21.05c0.00,18.43-14.04,24.89-29.10,24.89c-18.06,0.00-29.01-10.20-29.01-10.20l8.80-14.78s10.29,8.70,18.90,8.70c3.84,0.00,11.13-0.37,11.13-7.58c0.00-5.61-8.23-8.14-17.40-12.73c-9.26-4.58-14.69-11.79-14.69-19.84c0.00-14.41,12.73-23.58,25.17-23.58z"/>
	</g>
	<g aria-label="ARTHUR CONAN DOYLE">
		<path d="M390.92,1936.40l15.58,38.60l-9.45,0.00l-2.85-7.72l-14.69,0.00l-2.85,7.72l-9.45,0.00l15.58-38.60l8.14,0.00z  M391.21,1959.56l-4.30-11.23l-0.09,0.00l-4.30,11.23l8.70,0.00z"/>
		<path d="M413.00,1936.40l13.80,0.00c7.16,0.00,12.58,3.88,12.58,11.46c0.00,5.80-3.18,9.68-7.91,11.18l13.29,15.95l-11.18,0.00l-11.79-15.25l0.00,15.25l-8.80,0.00l0.00-38.60z  M421.80,1953.53l1.03,0.00c3.32,0.00,7.30-0.23,7.30-5.05s-3.98-5.05-7.30-5.05l-1.03,0.00l0.00,10.11z"/>
		<path d="M447.19,1944.12l0.00-7.72l27.13,0.00l0.00,7.72l-9.17,0.00l0.00,30.88l-8.80,0.00l0.00-30.88l-9.17,0.00z"/>
		<path d="M491.31,1959.51l0.00,15.49l-8.80,0.00l0.00-38.60l8.80,0.00l0.00,15.39l12.44,0.00l0.00-15.39l8.80,0.00l0.00,38.60l-8.80,0.00l0.00-15.49l-12.44,0.00z"/>
		<path d="M552.82,1936.40l0.00,24.89c0.00,9.54-5.24,14.41-15.06,14.41s-15.06-4.87-15.06-14.41l0.00-24.89l8.80,0.00l0.00,22.32c0.00,6.46,1.96,8.33,6.27,8.33s6.27-1.87,6.27-8.33l0.00-22.32l8.80,0.00z"/>
		<path d="M562.97,1936.40l13.80,0.00c7.16,0.00,12.58,3.88,12.58,11.46c0.00,5.80-3.18,9.68-7.91,11.18l13.29,15.95l-11.18,0.00l-11.79-15.25l0.00,15.25l-8.80,0.00l0.00-38.60z  M571.76,1953.53l1.03,0.00c3.32,0.00,7.30-0.23,7.30-5.05s-3.98-5.05-7.30-5.05l-1.03,0.00l0.00,10.11z"/>
		<path d="M638.28,1967.05c4.49,0.00,7.58-2.39,7.58-2.39l3.74,7.49s-4.30,3.56-12.68,3.56c-10.90,0.00-20.91-8.89-20.91-19.93c0.00-11.09,9.96-20.07,20.91-20.07c8.37,0.00,12.68,3.56,12.68,3.56l-3.74,7.49s-3.09-2.39-7.58-2.39c-8.84,0.00-12.73,6.18-12.73,11.32c0.00,5.19,3.88,11.37,12.73,11.37z"/>
		<path d="M656.24,1955.68c0.00-11.27,8.84-19.98,19.46-19.98c10.71,0.00,19.42,8.70,19.42,19.98s-8.33,20.02-19.42,20.02c-11.42,0.00-19.46-8.75-19.46-20.02z  M665.73,1955.68c0.00,5.75,2.76,11.51,9.96,11.51c7.02,0.00,9.92-5.75,9.92-11.51s-3.09-11.51-9.92-11.51c-6.78,0.00-9.96,5.75-9.96,11.51z"/>
		<path d="M712.79,1951.05l0.00,23.95l-8.80,0.00l0.00-38.60l8.80,0.00l15.35,23.95l0.09,0.00l0.00-23.95l8.80,0.00l0.00,38.60l-8.80,0.00l-15.35-23.95l-0.09,0.00z"/>
		<path d="M767.24,1936.40l15.58,38.60l-9.45,0.00l-2.85-7.72l-14.69,0.00l-2.85,7.72l-9.45,0.00l15.58-38.60l8.14,0.00z  M767.52,1959.56l-4.30-11.23l-0.09,0.00l-4.30,11.23l8.70,0.00z"/>
		<path d="M798.11,1951.05l0.00,23.95l-8.80,0.00l0.00-38.60l8.80,0.00l15.35,23.95l0.09,0.00l0.00-23.95l8.80,0.00l0.00,38.60l-8.80,0.00l-15.35-23.95l-0.09,0.00z"/>
		<path d="M850.73,1936.40l11.18,0.00c10.57,0.00,19.46,8.05,19.46,19.28c0.00,11.27-8.84,19.32-19.46,19.32l-11.18,0.00l0.00-38.60z  M859.53,1967.14l1.36,0.00c6.50,0.00,10.95-4.96,10.99-11.42c0.00-6.46-4.44-11.46-10.99-11.46l-1.36,0.00l0.00,22.88z"/>
		<path d="M888.53,1955.68c0.00-11.27,8.84-19.98,19.46-19.98c10.71,0.00,19.42,8.70,19.42,19.98s-8.33,20.02-19.42,20.02c-11.42,0.00-19.46-8.75-19.46-20.02z  M898.03,1955.68c0.00,5.75,2.76,11.51,9.96,11.51c7.02,0.00,9.92-5.75,9.92-11.51s-3.09-11.51-9.92-11.51c-6.78,0.00-9.96,5.75-9.96,11.51z"/>
		<path d="M932.08,1936.40l10.57,0.00l8.05,12.35l8.05-12.35l10.57,0.00l-14.22,21.29l0.00,17.31l-8.80,0.00l0.00-17.31z"/>
		<path d="M984.52,1936.40l0.00,30.88l13.29,0.00l0.00,7.72l-22.08,0.00l0.00-38.60l8.80,0.00z"/>
		<path d="M1029.24,1936.40l0.00,7.72l-13.29,0.00l0.00,7.67l12.73,0.00l0.00,7.72l-12.73,0.00l0.00,7.77l13.29,0.00l0.00,7.72l-22.08,0.00l0.00-38.60l22.08,0.00z"/>
	</g>
</svg>
